<?xml version="1.0" encoding="UTF-8"?>
<svg width="637px" height="606px" viewBox="0 0 637 606" version="1.1" xmlns="http://www.w3.org/2000/svg" xmlns:xlink="http://www.w3.org/1999/xlink">
    <!-- Generator: Sketch 58 (84663) - https://sketch.com -->
    <title>Group 15</title>
    <desc>Created with Sketch.</desc>
    <defs>
        <linearGradient x1="28.1106854%" y1="96.4027859%" x2="76.3285801%" y2="1.07483221%" id="linearGradient-1">
            <stop stop-color="#FFC14D" offset="0%"></stop>
            <stop stop-color="#9043F0" offset="100%"></stop>
        </linearGradient>
        <linearGradient x1="28.1106854%" y1="96.4027859%" x2="76.3285801%" y2="1.07483221%" id="linearGradient-2">
            <stop stop-color="#FFC14D" offset="0%"></stop>
            <stop stop-color="#9043F0" offset="100%"></stop>
        </linearGradient>
    </defs>
    <g id="UI" stroke="none" stroke-width="1" fill="none" fill-rule="evenodd">
        <g id="Home" transform="translate(-1069.000000, -162.000000)">
            <g id="Group-2" transform="translate(50.000000, 126.000000)">
                <g id="Group-15" transform="translate(1019.000000, 36.000000)">
                    <path d="M586.309538,436.960704 C511.141623,547.130854 315.407772,633.311836 150.102062,597.956072 C115.052779,590.844828 82.9303625,573.645325 57.7984112,548.533362 C10.5955091,501.266747 -6.39159024,431.204141 2.10195941,371.691746 C2.71774176,367.379557 3.46092735,363.109234 4.35275006,358.922643 C11.1263559,326.769622 25.7140274,298.635728 47.3301113,280.23566 C108.483669,228.217263 150.293167,225.809973 184.331067,218.650902 C200.320174,215.343495 214.589338,211.031306 228.327654,200.146168 C240.898108,190.182081 253.02265,174.754492 265.635571,149.551213 C312.350094,56.3576907 429.34874,-3.11283847 543.247241,90.792404 C544.988419,92.236778 546.729597,93.702085 548.470774,95.2092578 C563.16601,107.871014 576.468045,122.022956 588.156885,137.431031 C597.93125,150.334729 606.408156,164.145841 613.467663,178.668955 C652.453056,259.218971 642.727941,354.149929 586.309538,436.960704 Z" id="Shape" fill="url(#linearGradient-1)" fill-rule="nonzero" opacity="0.149999991"></path>
                    <path d="M220.112574,141.520397 C193.081747,181.138234 122.694697,212.129424 63.2497867,199.415283 C50.6458572,196.858037 39.0944465,190.672995 30.0568483,181.642584 C13.0824057,164.64523 6.97374433,139.450303 10.028075,118.049294 C10.249514,116.498605 10.5167679,114.962972 10.8374726,113.457449 C13.2733013,101.895032 18.5191142,91.7779178 26.2923858,85.1611443 C48.2835665,66.4550214 63.3185092,65.5893457 75.5587393,63.0149014 C81.3085168,61.8255382 86.4397923,60.2748496 91.3801721,56.3604898 C95.9005815,52.7773452 100.260639,47.229493 104.79632,38.1662447 C121.595138,4.6533033 163.668543,-16.7326506 204.627117,17.0362298 C205.253255,17.5556352 205.879393,18.0825682 206.505531,18.6245565 C211.790024,23.177799 216.573515,28.2669208 220.776891,33.8077557 C224.29181,38.4480016 227.340156,43.4145592 229.878796,48.637157 C243.898174,77.603419 240.400965,111.741152 220.112574,141.520397 Z" id="Shape" fill="url(#linearGradient-2)" fill-rule="nonzero" opacity="0.149999991"></path>
                    <g id="back-and-obj-30" transform="translate(58.000000, 19.000000)">
                        <g id="Man">
                            <ellipse id="Oval" fill="#C79BFF" fill-rule="nonzero" cx="277.631724" cy="499.741" rx="277.43931" ry="1.93323404"></ellipse>
                            <path d="M541.628793,499.73566 L21.6518966,499.73566 C21.6518966,499.452617 21.6518966,499.164234 21.6518966,498.875851 C21.6518966,483.586213 21.6518966,464.697128 40.2144828,453.199191 C68.6596552,435.575787 98.6868966,464.040255 98.2112069,428.878894 C97.7141379,392.334362 81.3268966,201.456872 81.3268966,201.456872 L86.1906897,186.973638 C86.1906897,186.973638 124.213793,339.175766 133.978793,391.084702 C144.422586,446.625128 155.839138,389.642787 192.771897,387.960553 C227.609483,386.358426 243.836379,406.118 250.496034,430.358191 C270.646034,424.441 289.23,421.316851 303.292241,434.865511 C322.453448,386.481255 354.025345,428.222021 350.364138,382.892489 C346.056207,329.589702 329.236034,165.307532 329.236034,165.307532 L336.387414,156.228809 C336.387414,156.228809 372.448966,307.619191 387.264828,374.732319 C397.762069,422.262106 424.742759,371.378532 471.141207,395.325 C507.486034,414.096596 498.399828,457.807979 498.399828,457.807979 C498.399828,457.807979 538.176034,453.856064 541.628793,499.73566 Z" id="Path" fill="#E0C7FF" fill-rule="nonzero"></path>
                            <g id="Group-14" transform="translate(1.940172, 377.114149)" fill="#B87FFF" fill-rule="nonzero">
                                <path d="M215.637069,97.5268511 C215.652842,106.460985 213.009116,115.197984 208.042069,122.626851 L132.621207,122.626851 C128.140072,115.930917 125.542726,108.154519 125.101034,100.111617 C125.052931,99.2571489 125.026207,98.3973404 125.026207,97.5321915 C124.849125,81.2422895 133.445353,66.1135132 147.535677,57.9170572 C161.626,49.7206012 179.037275,49.7206012 193.127599,57.9170572 C207.217923,66.1135132 215.814151,81.2422895 215.637069,97.5321915 L215.637069,97.5268511 Z" id="Path"></path>
                                <path d="M361.427931,121.804426 C361.427931,122.076787 361.427931,122.338468 361.427931,122.621511 L292.287241,122.621511 C292.287241,122.354489 292.287241,122.087468 292.287241,121.804426 C292.287241,102.724527 307.767305,87.2572128 326.862931,87.2572128 C345.958557,87.2572128 361.438621,102.724527 361.438621,121.804426 L361.427931,121.804426 Z" id="Path"></path>
                                <path d="M262.596724,121.558766 C262.596724,121.911234 262.596724,122.269043 262.596724,122.626851 L172.899828,122.626851 C172.899828,122.274383 172.899828,121.916574 172.899828,121.558766 C172.899828,96.8071026 192.981555,76.7419149 217.753621,76.7419149 C242.525687,76.7419149 262.607414,96.8071026 262.607414,121.558766 L262.596724,121.558766 Z" id="Path"></path>
                                <path d="M135.47,122.050085 C135.47,122.237 135.47,122.434596 135.47,122.621511 L86.8908243,122.621511 C86.8908243,122.434596 86.8908243,122.237 86.8908243,122.050085 C86.8794856,115.60921 89.4351859,109.428866 93.9933334,104.874473 C98.5514808,100.320079 104.73692,97.766484 111.183103,97.7778133 C112.377871,97.7765052 113.571148,97.8621791 114.753448,98.0341915 C126.658272,99.8089683 135.469423,110.023393 135.47,122.050085 L135.47,122.050085 Z" id="Path"></path>
                                <path d="M67.2325862,122.343809 C67.2325862,122.434596 67.2325862,122.530723 67.2325862,122.621511 L43.6886207,122.621511 C43.6886207,122.530723 43.6886207,122.434596 43.6886207,122.343809 C43.6886207,115.85505 48.9531345,110.594866 55.4472414,110.594866 C56.0268786,110.594259 56.6057449,110.637103 57.1789655,110.723043 C62.9513297,111.568278 67.2305982,116.514594 67.2325862,122.343809 Z" id="Path"></path>
                                <path d="M507.961724,122.050085 C507.961724,122.237 507.961724,122.434596 507.961724,122.621511 L459.393276,122.621511 C459.393276,122.434596 459.393276,122.237 459.393276,122.050085 C459.393276,108.6449 470.269283,97.7778511 483.685517,97.7778511 C497.101752,97.7778511 507.977759,108.6449 507.977759,122.050085 L507.961724,122.050085 Z" id="Path"></path>
                                <path d="M449.580172,99.0915957 C449.584229,107.260757 447.678986,115.317995 444.016207,122.621511 L349.637241,122.621511 C339.912511,103.145045 343.170456,79.6989206 357.837679,63.6062464 C372.504903,47.5135723 395.564028,42.0849718 415.878845,49.9421419 C436.193662,57.799312 449.585517,77.3258569 449.585517,99.0915957 L449.580172,99.0915957 Z" id="Path"></path>
                                <ellipse id="Oval" cx="78.7132759" cy="55.9783404" rx="7.23689655" ry="7.23093617"></ellipse>
                                <ellipse id="Oval" cx="4.16362069" cy="98.4827872" rx="4.16362069" ry="4.16019149"></ellipse>
                                <ellipse id="Oval" cx="322.277069" cy="13.6394468" rx="10.3582759" ry="10.3497447"></ellipse>
                                <ellipse id="Oval" cx="403.021379" cy="4.27234043" rx="4.27586207" ry="4.27234043"></ellipse>
                                <ellipse id="Oval" cx="545.771034" cy="81.8313404" rx="9.86655172" ry="9.85842553"></ellipse>
                            </g>
                            <path d="M101.113448,204.954851 L69.9744828,209.125723 L56.7567241,110.520106 C53.8384483,88.7738936 67.612069,73.3133617 67.612069,73.3133617 C67.612069,73.3133617 84.9774138,84.6083617 87.8903448,106.354574 L101.113448,204.954851 Z" id="Path" fill="#B77EFF" fill-rule="nonzero"></path>
                            <polygon id="Rectangle" fill="#9043F0" fill-rule="nonzero" transform="translate(78.124487, 151.714912) rotate(-7.630000) translate(-78.124487, -151.714912) " points="62.4124812 116.818362 93.8289216 116.821767 93.836492 186.611462 62.4200516 186.608057"></polygon>
                            <polygon id="Rectangle" fill="#8639E6" fill-rule="nonzero" transform="translate(84.761269, 212.397161) rotate(-7.480886) translate(-84.761269, -212.397161) " points="72.150068 207.617915 97.3714531 207.620597 97.3724699 217.176407 72.1510848 217.173726"></polygon>
                            <polygon id="Path" fill="#8639E6" fill-rule="nonzero" points="55.5167241 215.416745 69.9691379 209.125723 67.5372414 190.973617 54.8058621 210.108362"></polygon>
                            <polygon id="Path" fill="#8639E6" fill-rule="nonzero" points="116.709655 207.229872 101.108103 204.960191 98.6762069 186.808085 115.998793 201.921489"></polygon>
                            <polygon id="Path" fill="#B77EFF" fill-rule="nonzero" points="325.104483 148.410426 85.4317241 180.490362 78.0505172 125.435915 188.560172 39.8235532 317.723276 93.3559787"></polygon>
                            <path d="M263.997069,85.7779149 L273.318448,155.342298 L137.217759,173.558489 L127.891034,103.994106 C126.602503,94.3645079 130.537968,84.7770433 138.222586,78.8246809 L188.565517,39.8395745 L247.401379,64.2292979 C256.378465,67.9475503 262.699469,76.155037 263.997069,85.7779149 L263.997069,85.7779149 Z" id="Path" fill="#9043F0" fill-rule="nonzero"></path>
                            <path d="M349.973966,168.736085 L318.835,172.906957 L305.617241,74.3013404 C302.715,52.5818298 316.472586,37.0945957 316.472586,37.0945957 C316.472586,37.0945957 333.837931,48.3895957 336.750862,70.1358085 L349.973966,168.736085 Z" id="Path" fill="#B77EFF" fill-rule="nonzero"></path>
                            <polygon id="Rectangle" fill="#9043F0" fill-rule="nonzero" transform="translate(326.986466, 115.490233) rotate(-7.630000) translate(-326.986466, -115.490233) " points="311.274461 80.5936825 342.690901 80.5970877 342.698471 150.386783 311.282031 150.383378"></polygon>
                            <polygon id="Rectangle" fill="#8639E6" fill-rule="nonzero" transform="translate(335.041734, 175.561045) rotate(-7.630000) translate(-335.041734, -175.561045) " points="322.411571 170.774585 347.670859 170.777323 347.671897 180.347505 322.412609 180.344767"></polygon>
                            <polygon id="Path" fill="#8639E6" fill-rule="nonzero" points="304.377241 179.197979 318.829655 172.906957 316.397759 154.754851 303.666379 173.889596"></polygon>
                            <polygon id="Path" fill="#8639E6" fill-rule="nonzero" points="365.570172 171.005766 349.968621 168.736085 347.536724 150.589319 364.85931 165.697383"></polygon>
                            <path d="M161.723793,304.772745 L170.697759,314.465617 C170.697759,314.465617 149.975862,333.488213 148.201379,347.907362 L192.734483,318.834085 L170.874138,288.698064 L161.723793,304.772745 Z" id="Path" fill="#8639E6" fill-rule="nonzero"></path>
                            <polygon id="Path" fill="#FFC14D" fill-rule="nonzero" points="172.734138 291.560532 182.819828 305.563128 170.66569 314.465617 161.718448 304.772745"></polygon>
                            <path d="M255.001724,348.975447 L264.504828,358.123596 C264.504828,358.123596 255.659138,388.457213 254.745172,402.98317 L285.745172,359.047489 L263.163276,332.420128 L255.001724,348.975447 Z" id="Path" fill="#8639E6" fill-rule="nonzero"></path>
                            <polygon id="Path" fill="#FFC14D" fill-rule="nonzero" points="265.21569 335.138404 275.039483 346.390681 264.504828 358.128936 254.996379 348.980787"></polygon>
                            <path d="M112.562069,190.364809 C112.562069,190.364809 163.215,189.366149 166.186724,182.140553 C172.033966,167.929681 165.075,120.693617 165.075,120.693617 L135.293621,125.841787 L140.413966,168.720064 L105.971897,176.19666" id="Path" fill="#F9B6A7" fill-rule="nonzero"></path>
                            <path d="M165.673621,170.482404 L158.319138,139.144787 L133.978793,143.732213 C133.978793,143.732213 133.476379,105.350574 139.697759,95.8392766 C145.06931,87.6417234 154.155517,76.9768936 177.015345,72.3093617 C211.008448,65.3668085 219.239483,68.9235319 230.634655,77.6124043 C240.469138,85.1157021 253.996897,108.485404 253.996897,108.485404 L228.518103,122.370511 L237.069828,151.780234 L165.673621,170.482404 Z" id="Path" fill="#FFC14D" fill-rule="nonzero"></path>
                            <polyline id="Path" stroke="#0D0B6D" stroke-width="9" points="180.302414 2.62748936 181.831034 12.9985957 186.085517 13.516617 190.543103 4.34710638"></polyline>
                            <path d="M130.82,29.1587234 C130.82,29.1587234 121.525345,50.7981277 141.637931,50.7981277 L130.82,29.1587234 Z" id="Path" fill="#0D0B6D" fill-rule="nonzero"></path>
                            <path d="M170.697759,81.9541702 L167.383966,69.2225957 C167.383966,69.2225957 149.484138,75.3 144.78069,74.1998723 C144.78069,74.1998723 136.677931,55.6098511 136.170172,41.089234 L148.746552,22.1894681 L175.60431,17.4097872 L184.690517,40.4964468 C185.032586,36.0745745 196.294138,27.7808936 201.633621,36.1333191 C208.523103,46.9102979 188.763276,58.2640426 188.763276,58.2640426 L193.846207,74.8887872" id="Path" fill="#F9B6A7" fill-rule="nonzero"></path>
                            <path d="M170.697759,73.6818511 L164.818448,75.8180213 C164.818448,75.8180213 161.611552,93.4414255 179.318966,89.8099362 C193.621724,86.846 196.026897,69.2279362 196.026897,69.2279362 L188.127241,70.1197872" id="Path" fill="#E576C6" fill-rule="nonzero"></path>
                            <path d="M193.680517,32.7688511 C193.680517,32.7688511 205.155862,24.3042766 186.31,12.6835106 C167.464138,1.06274468 156.213276,12.4538723 156.213276,12.4538723 C156.213276,12.4538723 148.457931,-2.3017234 138.09431,0.384510638 C123.331897,4.21359574 126.870172,27.6206809 126.870172,27.6206809 C126.870172,27.6206809 116.255345,17.105383 112.471207,19.9571702 C108.687069,22.8089574 119.088103,64.0584043 172.771552,28.9931702 C172.771552,28.9931702 170.633621,41.6499787 184.674483,40.5284894 C184.685172,40.5231489 185.796897,35.0705745 193.680517,32.7688511 Z" id="Path" fill="#0D0B6D" fill-rule="nonzero"></path>
                            <path d="M205.51931,68.6031064 C205.51931,68.6031064 207.197586,67.5777447 216.818276,70.0557021 C216.818276,70.0557021 209.442414,96.7578298 231.147759,146.279596 L227.545345,149.676106 C227.545345,149.676106 200.489828,115.737702 205.51931,68.6031064 Z" id="Path" fill="#242530" fill-rule="nonzero"></path>
                            <path d="M147.741724,86.1090213 C147.741724,86.1090213 153.909655,79.780617 157.928966,78.888766 C157.928966,78.888766 148.196034,100.506809 161.841379,154.146043 L164.877241,167.107255 C164.877241,167.107255 141.589828,132.277 147.741724,86.1090213 Z" id="Path" fill="#242530" fill-rule="nonzero"></path>
                            <path d="M155.769655,65.9328936 C156.389655,67.8981702 161.114483,68.5443617 163.888448,66.4669362 C169.997586,61.8901915 168.121552,55.8341489 164.364138,55.935617 C159.676724,56.0584468 160.783103,60.3468085 158.607759,61.8100851 C156.111724,63.4495957 155.315345,64.4802979 155.769655,65.9328936 Z" id="Path" fill="#FFFFFF" fill-rule="nonzero"></path>
                            <polygon id="Path" fill="#CF3E83" fill-rule="nonzero" points="167.416034 69.313383 181.392759 62.6431915 169.008793 75.2893191"></polygon>
                            <polygon id="Path" fill="#E9A191" fill-rule="nonzero" points="150.366034 51.2520638 148.661034 63.4495957 154.096724 62.1411915"></polygon>
                            <ellipse id="Oval" fill="#0D0B6D" fill-rule="nonzero" transform="translate(157.410068, 50.760745) rotate(-7.980000) translate(-157.410068, -50.760745) " cx="157.410068" cy="50.760745" rx="2.69375034" ry="3.64756858"></ellipse>
                            <ellipse id="Oval" fill="#0D0B6D" fill-rule="nonzero" transform="translate(144.407381, 53.630789) rotate(-7.980000) translate(-144.407381, -53.630789) " cx="144.407381" cy="53.6307891" rx="2.69375034" ry="3.64756858"></ellipse>
                            <path d="M165.673621,170.482404 C165.673621,170.482404 100.680517,205.050979 93.9674138,224.377979 C86.7305172,245.173596 159.612586,313.605809 159.612586,313.605809 L182.125,297.338872 L140.916379,232.757106 L217.881897,190.348787 L201.339655,161.142 L165.673621,170.482404 Z" id="Path" fill="#634885" fill-rule="nonzero"></path>
                            <path d="M196.026897,162.535851 C196.026897,162.535851 191.28069,257.595426 196.026897,277.09866 C198.571034,287.555213 256.51431,360.355894 256.51431,360.355894 L275.157069,337.787255 L235.370172,262.636787 L240.276724,150.242191 L196.026897,162.535851 Z" id="Path" fill="#634885" fill-rule="nonzero"></path>
                            <path d="M210.046379,159.828255 C210.046379,159.828255 257.31069,167.449043 263.745862,161.376979 C274.045345,151.646723 250.453276,110.413298 250.453276,110.413298 L227.470517,123.000681 L236.508621,141.932489 L208.597931,142.167468" id="Path" fill="#F9B6A7" fill-rule="nonzero"></path>
                            <path d="M91.2789655,163.801532 L115.507069,196.009638" id="Path" stroke="#23262B" stroke-width="20"></path>
                            <path d="M202.766724,167.256787 L194.215,126.963277" id="Path" stroke="#23262B" stroke-width="18"></path>
                            <ellipse id="Oval" fill="#EFA291" fill-rule="nonzero" transform="translate(101.607507, 186.743360) rotate(-42.380000) translate(-101.607507, -186.743360) " cx="101.607507" cy="186.74336" rx="7.36776108" ry="12.6241519"></ellipse>
                            <path d="M105.619138,177.141915 C105.373276,181.200638 101.033276,181.456979 101.033276,181.456979 L100.386552,171.267447 L113.850172,174.471702 L113.096552,181.46766 L105.619138,177.141915 Z" id="Path" fill="#EFA291" fill-rule="nonzero"></path>
                            <path d="M212.579828,144.175468 C212.579828,144.175468 199.559828,135.358426 196.352931,135.604085 C192.526034,135.897809 186.94069,138.706872 184.931034,140.196851 C182.921379,141.68683 184.519483,145.58 185.770172,146.429128 C184.399125,148.552565 184.671422,151.33965 186.427586,153.158064 C186.391199,155.296218 187.535335,157.2809 189.404655,158.322255 C189.891583,160.389174 191.716198,161.865236 193.840862,161.911021 C197.582241,162.033851 206.219483,160.453085 212.996724,159.176723" id="Path" fill="#EFA291" fill-rule="nonzero"></path>
                            <path d="M91.2789655,163.801532 L153.840172,81.324" id="Path" stroke="#23262B" stroke-width="5"></path>
                            <path d="M210.687759,68.9662553 L194.215,126.963277" id="Path" stroke="#23262B" stroke-width="5"></path>
                            <polygon id="Path" fill="#1D2126" fill-rule="nonzero" points="194.487586 203.069681 195.043448 192.266 166.673103 218.300574"></polygon>
                            <polygon id="Path" fill="#CF3E83" fill-rule="nonzero" points="227.459828 123.000681 250.447931 110.413298 231.147759 130.717596"></polygon>
                            <polygon id="Path" fill="#CF3E83" fill-rule="nonzero" points="137.351379 143.096702 138.366897 151.59866 154.577759 145.537277 152.760517 140.191511"></polygon>
                        </g>
                    </g>
                </g>
            </g>
        </g>
    </g>
</svg>