<svg xmlns="http://www.w3.org/2000/svg" xmlns:xlink="http://www.w3.org/1999/xlink" width="280.892" height="249" viewBox="0 0 280.892 249">
  <defs>
    <linearGradient id="linear-gradient" x1="0.281" y1="1.095" x2="0.763" y2="-0.127" gradientUnits="objectBoundingBox">
      <stop offset="0" stop-color="#ffc14d"/>
      <stop offset="1" stop-color="#9043f0"/>
    </linearGradient>
  </defs>
  <path id="Shape" d="M258.539,174.183c-33.146,48.762-119.457,86.905-192.35,71.257a80.018,80.018,0,0,1-40.7-21.875c-20.815-20.92-28.305-51.93-24.56-78.27.272-1.909.6-3.8.993-5.652,2.987-14.231,9.419-26.683,18.951-34.827,26.966-23.023,45.4-24.089,60.412-27.258,7.051-1.464,13.343-3.372,19.4-8.19,5.543-4.41,10.89-11.238,16.451-22.393,20.6-41.248,72.191-67.569,122.416-26.007.768.639,1.536,1.288,2.3,1.955a121.821,121.821,0,0,1,17.5,18.687,109.61,109.61,0,0,1,11.161,18.252C287.706,95.514,283.417,137.531,258.539,174.183Z" opacity="0.15" fill="url(#linear-gradient)"/>
</svg>
