<?xml version="1.0" encoding="UTF-8"?>
<svg width="104px" height="96px" viewBox="0 0 104 96" version="1.1" xmlns="http://www.w3.org/2000/svg" xmlns:xlink="http://www.w3.org/1999/xlink">
    <!-- Generator: Sketch 58 (84663) - https://sketch.com -->
    <title>Motion</title>
    <desc>Created with Sketch.</desc>
    <defs>
        <linearGradient x1="28.1106854%" y1="96.5542936%" x2="76.3285801%" y2="0.915088794%" id="linearGradient-1">
            <stop stop-color="#FFC14D" offset="0%"></stop>
            <stop stop-color="#9043F0" offset="100%"></stop>
        </linearGradient>
    </defs>
    <g id="UI" stroke="none" stroke-width="1" fill="none" fill-rule="evenodd">
        <g id="Home" transform="translate(-895.000000, -909.000000)" fill-rule="nonzero">
            <g id="Services" transform="translate(375.000000, 830.000000)">
                <g id="Group-4" transform="translate(520.000000, 79.000000)">
                    <g id="Motion">
                        <path d="M95.7240062,64.3567295 C83.4516936,82.3730329 51.4951464,96.4663488 24.5064591,90.6845634 C18.7841271,89.5216501 13.539651,86.7089875 9.4364753,82.6023874 C1.72987903,74.872801 -1.04352494,63.4153494 0.343177046,53.6831907 C0.44371294,52.9780115 0.565049364,52.2796786 0.710653072,51.5950385 C1.8165479,46.3370028 4.19820856,41.7362215 7.7273651,38.7272283 C17.7116194,30.2205755 24.5376599,29.8269074 30.0948681,28.6561729 C32.7053346,28.1153072 35.0349939,27.410128 37.2779844,25.6300638 C39.3303033,24.0006204 41.3098204,21.4777217 43.3690728,17.3561885 C50.9959337,2.11610049 70.0977535,-7.60921173 88.6934271,7.74726508 C88.977701,7.98346591 89.2619749,8.22308993 89.5462488,8.46956036 C91.945471,10.540158 94.1172318,12.854448 96.0256139,15.3741555 C97.6214286,17.4843181 99.0054133,19.7428717 100.157986,22.1178602 C106.522948,35.2903352 104.935174,50.8145488 95.7240062,64.3567295 Z" id="Shape" fill="url(#linearGradient-1)" opacity="0.200000003"></path>
                        <path d="M99.4641188,80.9764834 C92.7379475,90.7679527 75.2233014,98.4273635 60.4314247,95.2850888 C57.2951466,94.6530707 54.4207703,93.1244497 52.1719143,90.8926018 C47.9481068,86.6917397 46.4280681,80.4648638 47.1880874,75.1756471 C47.2431888,74.7923975 47.3096905,74.4128688 47.3894925,74.0407818 C47.995608,71.1831537 49.3009412,68.6827291 51.2351905,67.0474067 C56.7073299,62.4242258 60.4485251,62.2102758 63.4943027,61.574007 C64.9250391,61.2800583 66.2018717,60.8968087 67.431203,59.9293825 C68.5560316,59.0438154 69.6409592,57.6726749 70.769588,55.4327111 C74.9496944,47.1500546 85.4189611,41.8645588 95.6108206,50.2104702 C95.7666246,50.3388402 95.9224286,50.4690706 96.0782325,50.6030219 C97.3931908,51.7283467 98.5834828,52.986113 99.629423,54.3555193 C100.504052,55.5023468 101.262582,56.7298216 101.894281,58.0205762 C105.38277,65.17953 104.512547,73.6166026 99.4641188,80.9764834 Z" id="Shape-Copy" fill="#9043F0"></path>
                        <g id="Group" transform="translate(25.000000, 14.000000)">
                            <path d="M50.2065097,21.3459214 L10.8236972,21.3459214 L47.9432521,11.3998977 C49.4759225,10.9893864 50.3883279,9.40794696 49.9778164,7.87527651 L48.2495967,1.42451888 C47.9811308,0.42262497 46.9001648,-0.206162909 45.8935361,0.0646703515 L1.66010812,11.9169431 C1.16389595,12.0499923 0.749123297,12.3681742 0.492021042,12.8127764 C0.234918788,13.2578522 0.16673697,13.7763181 0.299786182,14.2725302 L2.57014604,22.7466671 C2.52244247,22.9140439 2.48870662,23.087221 2.48870662,23.2696903 L2.48870662,30.8861676 L2.48870662,32.8255615 L2.48870662,60.1669441 C2.48870662,62.2796298 4.20793008,63.9983798 6.32061954,63.9983798 L48.2983658,63.9983798 C50.4110551,63.9983798 52.1302787,62.2796299 52.1302787,60.1669441 L52.1302787,32.8255615 L52.1302787,30.8861676 L52.1302787,23.2696903 C52.1302787,22.2090842 51.2671157,21.3459214 50.2065097,21.3459214 Z" id="Path" fill="#FFC14D"></path>
                            <polygon id="Path" fill="#E1A638" points="40.7720281 23.2728863 44.0880201 30.8861676 38.1133515 30.8861676 34.7982473 23.2749578"></polygon>
                            <polygon id="Path" fill="#E1A638" points="32.6827762 23.2756681 35.9975845 30.8861676 30.0229159 30.8861676 26.7089954 23.2776804"></polygon>
                            <polygon id="Path" fill="#E1A638" points="24.5935244 23.2784497 27.9071489 30.8861676 21.932066 30.8861676 18.6197436 23.2804621"></polygon>
                            <polygon id="Path" fill="#E1A638" points="16.5042725 23.2811724 19.816299 30.8861677 13.8415712 30.8861677 10.5300774 23.2832439"></polygon>
                            <path d="M42.5312019,2.95819559 L46.3764908,1.9264129 L48.1047105,8.37717052 C48.2387067,8.87717052 47.9408848,9.39279554 47.4413583,9.52679176 L41.2983066,11.1728026 L42.5312019,2.95819559 Z" id="Path" fill="#E1A638"></path>
                            <polygon id="Path" fill="#E1A638" points="34.715861 5.05520078 40.4881148 3.50637265 39.2553378 11.7202102 33.4834391 13.2667893"></polygon>
                            <polygon id="Path" fill="#E1A638" points="26.9005793 7.15220596 32.6727739 5.60337784 31.4404704 13.8141969 25.6685717 15.3607769"></polygon>
                            <polygon id="Path" fill="#E1A638" points="19.0852384 9.24921115 24.8574922 7.70038303 23.625603 15.9081846 17.8537043 17.4547045"></polygon>
                            <polygon id="Path" fill="#E1A638" points="11.2694832 11.3463347 17.0421513 9.79738822 15.8107355 18.0021122 10.0387777 19.5487504"></polygon>
                            <polygon id="Path" fill="#E1A638" points="2.16200213 13.7900493 9.22639612 11.8945119 7.99580897 20.096099 4.14258928 21.1285919"></polygon>
                            <polygon id="Path" fill="#E1A638" points="4.41247554 23.2853153 8.41460625 23.283954 11.7258042 30.8861676 4.42620664 30.8861676"></polygon>
                            <path d="M50.1908847,60.1669441 C50.1908847,61.2100275 49.3419263,62.0589859 48.2983657,62.0589859 L6.32061954,62.0589859 C5.27705891,62.0589859 4.42810056,61.2100275 4.42810056,60.1669441 L4.42810056,32.8255615 L50.1908847,32.8255615 L50.1908847,60.1669441 Z" id="Path" fill="#FFC14D"></path>
                            <polygon id="Path" fill="#E1A638" points="50.1908847 30.8861676 46.2037872 30.8861676 42.8874992 23.2721761 50.1908847 23.2696903"></polygon>
                            <path d="M27.3097294,57.139482 C32.6567938,57.139482 37.0066991,52.7895767 37.0066991,47.4425123 C37.0066991,42.0954479 32.6567938,37.7455426 27.3097294,37.7455426 C21.9626649,37.7455426 17.6127597,42.0954479 17.6127597,47.4425123 C17.6127597,52.7895767 21.9626632,57.139482 27.3097294,57.139482 Z" id="Shape" fill="#FFFFFF" opacity="0.200000003"></path>
                            <path d="M25.319199,52.2909971 C25.6378544,52.2909971 25.9565097,52.2090842 26.2353922,52.0570957 L31.6425892,49.1456373 C32.2685361,48.8061487 32.6572672,48.1532131 32.6572672,47.4425123 C32.6572672,46.7318115 32.2685361,46.0788759 31.6397483,45.7379668 L26.2396535,42.8302963 C25.9565096,42.6759403 25.6378543,42.5940274 25.3191989,42.5940274 C24.2524375,42.5940274 23.3845398,43.4638192 23.3845398,44.5324744 L23.3845398,50.3525501 C23.3845398,51.4212054 24.2524377,52.2909971 25.319199,52.2909971 Z" id="Path" fill="#FFFFFF"></path>
                        </g>
                    </g>
                </g>
            </g>
        </g>
    </g>
</svg>