<?xml version="1.0" encoding="UTF-8"?>
<svg width="563px" height="499px" viewBox="0 0 563 499" version="1.1" xmlns="http://www.w3.org/2000/svg" xmlns:xlink="http://www.w3.org/1999/xlink">
    <!-- Generator: Sketch 58 (84663) - https://sketch.com -->
    <title>Client</title>
    <desc>Created with Sketch.</desc>
    <defs>
        <linearGradient x1="28.1106854%" y1="96.7342273%" x2="76.3285801%" y2="0.725374166%" id="linearGradient-1">
            <stop stop-color="#FFC14D" offset="0%"></stop>
            <stop stop-color="#9043F0" offset="100%"></stop>
        </linearGradient>
    </defs>
    <g id="UI" stroke="none" stroke-width="1" fill="none" fill-rule="evenodd" opacity="0.200000003">
        <g id="Home" transform="translate(-137.000000, -4921.000000)" fill="url(#linearGradient-1)" fill-rule="nonzero">
            <g id="Clients" transform="translate(137.000000, 4658.000000)">
                <path d="M518.198226,612.065304 C451.762534,709.784168 278.766995,786.225088 132.664774,754.865186 C101.68715,748.557645 73.29638,733.302008 51.0839961,711.028166 C9.36463359,669.103562 -5.64908211,606.959341 1.85777574,554.172958 C2.40202293,550.348127 3.058873,546.560431 3.84709307,542.847002 C9.83381221,514.327874 22.7268406,489.373636 41.8317938,473.053119 C95.8811703,426.913773 132.833678,424.778552 162.917411,418.42859 C177.049071,415.494982 189.660592,411.670151 201.802935,402.015237 C212.913084,393.177278 223.629124,379.493295 234.776808,357.138457 C276.064526,274.477545 379.471493,221.728297 480.138456,305.020492 C481.677362,306.301625 483.216268,307.601325 484.755174,308.938159 C497.743271,320.1689 509.500015,332.721408 519.830967,346.388082 C528.469849,357.833421 535.961997,370.08362 542.201404,382.96535 C576.657881,454.411709 568.062529,538.613694 518.198226,612.065304 Z" id="Client" transform="translate(281.500000, 512.500000) scale(-1, 1) translate(-281.500000, -512.500000) "></path>
            </g>
        </g>
    </g>
</svg>