<svg xmlns="http://www.w3.org/2000/svg" width="684" height="2980.5" viewBox="0 0 684 2980.5">
  <defs>
    <style>
      .cls-1 {
        fill: none;
        stroke: rgba(144,67,240,0.24);
        stroke-miterlimit: 10;
      }
    </style>
  </defs>
  <g id="Path_2" data-name="Path 2" transform="translate(-416.5 -715.5)">
    <path id="Path_2-2" data-name="Path 2" class="cls-1" d="M71,0H36.8A36,36,0,0,0,.8,36V427.306a36,36,0,0,0,36,36H640a36,36,0,0,1,36,36v92.085H641a36,36,0,0,0-36,36V1027a36,36,0,0,1-36,36H119a36,36,0,0,0-36,36v93H36a36,36,0,0,0-36,36v382.5a36,36,0,0,0,36,36H647a36,36,0,0,1,36,36V1788H641a36,36,0,0,0-36,36v405.807a36,36,0,0,1-36,36H119a36,36,0,0,0-36,36V2384H36a36,36,0,0,0-36,36v377.5a36,36,0,0,0,36,36H643.425a36,36,0,0,1,36,36V2980" transform="translate(417 716)"/>
  </g>
</svg>
