<?xml version="1.0" encoding="UTF-8"?>
<svg width="598px" height="589px" viewBox="0 0 598 589" version="1.1" xmlns="http://www.w3.org/2000/svg" xmlns:xlink="http://www.w3.org/1999/xlink">
    <!-- Generator: Sketch 58 (84663) - https://sketch.com -->
    <title>Process</title>
    <desc>Created with Sketch.</desc>
    <defs>
        <linearGradient x1="28.1106854%" y1="107.408492%" x2="76.3285801%" y2="-10.5291268%" id="linearGradient-1">
            <stop stop-color="#FFC14D" offset="0%"></stop>
            <stop stop-color="#9043F0" offset="100%"></stop>
        </linearGradient>
        <linearGradient x1="28.1106854%" y1="68.2961828%" x2="76.3285801%" y2="30.7092657%" id="linearGradient-2">
            <stop stop-color="#FFC14D" offset="0%"></stop>
            <stop stop-color="#9043F0" offset="100%"></stop>
        </linearGradient>
        <linearGradient x1="1.66666674%" y1="50%" x2="98.3333375%" y2="50%" id="linearGradient-3">
            <stop stop-color="#EF40B9" offset="0%"></stop>
            <stop stop-color="#F9CEC3" offset="100%"></stop>
        </linearGradient>
        <linearGradient x1="-0.00100810478%" y1="49.9980051%" x2="100%" y2="49.9980051%" id="linearGradient-4">
            <stop stop-color="#EF40B9" offset="0%"></stop>
            <stop stop-color="#F9CEC3" offset="100%"></stop>
        </linearGradient>
        <linearGradient x1="58.3255568%" y1="-17.827476%" x2="43.3846547%" y2="75.9653126%" id="linearGradient-5">
            <stop stop-color="#E06CEA" offset="0%"></stop>
            <stop stop-color="#160F45" offset="100%"></stop>
        </linearGradient>
        <linearGradient x1="42.246971%" y1="109.490931%" x2="59.2609244%" y2="-12.2634872%" id="linearGradient-6">
            <stop stop-color="#FFCE73" offset="0%"></stop>
            <stop stop-color="#B87FFF" offset="100%"></stop>
        </linearGradient>
        <linearGradient x1="33.9909952%" y1="109.490931%" x2="69.1226143%" y2="-12.2634872%" id="linearGradient-7">
            <stop stop-color="#FFCE73" offset="0%"></stop>
            <stop stop-color="#B87FFF" offset="100%"></stop>
        </linearGradient>
        <linearGradient x1="28.1106854%" y1="74.7870996%" x2="76.1465922%" y2="24.0577054%" id="linearGradient-8">
            <stop stop-color="#FFCE73" offset="0%"></stop>
            <stop stop-color="#B87FFF" offset="100%"></stop>
        </linearGradient>
        <linearGradient x1="22.6701079%" y1="38.1462753%" x2="81.0911424%" y2="58.6661148%" id="linearGradient-9">
            <stop stop-color="#666666" offset="0%"></stop>
            <stop stop-color="#666666" stop-opacity="0" offset="100%"></stop>
        </linearGradient>
        <linearGradient x1="28.1106854%" y1="51.7903319%" x2="76.1465922%" y2="48.1262302%" id="linearGradient-10">
            <stop stop-color="#FFCE73" offset="0%"></stop>
            <stop stop-color="#B87FFF" offset="100%"></stop>
        </linearGradient>
        <linearGradient x1="28.1106854%" y1="57.6893332%" x2="76.1465922%" y2="41.9523078%" id="linearGradient-11">
            <stop stop-color="#FFCE73" offset="0%"></stop>
            <stop stop-color="#B87FFF" offset="100%"></stop>
        </linearGradient>
        <linearGradient x1="70.5271511%" y1="35.7829412%" x2="42.9345042%" y2="30.2194118%" id="linearGradient-12">
            <stop stop-color="#2A1873" offset="1%"></stop>
            <stop stop-color="#A14DA8" offset="99%"></stop>
        </linearGradient>
        <linearGradient x1="-14941.3111%" y1="580.702223%" x2="-14891.051%" y2="525.054193%" id="linearGradient-13">
            <stop stop-color="#2A1873" offset="1%"></stop>
            <stop stop-color="#A14DA8" offset="99%"></stop>
        </linearGradient>
        <linearGradient x1="42.3115701%" y1="51.0080613%" x2="108.449073%" y2="60.8982125%" id="linearGradient-14">
            <stop stop-color="#2A1873" offset="1%"></stop>
            <stop stop-color="#A14DA8" offset="99%"></stop>
        </linearGradient>
        <linearGradient x1="37.4468845%" y1="49.6700351%" x2="141.879604%" y2="54.4797611%" id="linearGradient-15">
            <stop stop-color="#2A1873" offset="1%"></stop>
            <stop stop-color="#A14DA8" offset="99%"></stop>
        </linearGradient>
        <linearGradient x1="42.7789639%" y1="51.1223566%" x2="109.48755%" y2="61.0091377%" id="linearGradient-16">
            <stop stop-color="#2A1873" offset="1%"></stop>
            <stop stop-color="#A14DA8" offset="99%"></stop>
        </linearGradient>
        <linearGradient x1="37.6658937%" y1="49.8530615%" x2="141.767504%" y2="54.5902076%" id="linearGradient-17">
            <stop stop-color="#2A1873" offset="1%"></stop>
            <stop stop-color="#A14DA8" offset="99%"></stop>
        </linearGradient>
        <linearGradient x1="46.3870559%" y1="51.6854245%" x2="71.5680075%" y2="89.1213858%" id="linearGradient-18">
            <stop stop-color="#2A1873" offset="1%"></stop>
            <stop stop-color="#A14DA8" offset="99%"></stop>
        </linearGradient>
        <linearGradient x1="34.0614135%" y1="51.6593556%" x2="132.690765%" y2="69.8302127%" id="linearGradient-19">
            <stop stop-color="#2A1873" offset="1%"></stop>
            <stop stop-color="#A14DA8" offset="99%"></stop>
        </linearGradient>
        <linearGradient x1="32.5053097%" y1="34.8732326%" x2="105.6%" y2="13.0461648%" id="linearGradient-20">
            <stop stop-color="#2A1873" offset="1%"></stop>
            <stop stop-color="#A14DA8" offset="99%"></stop>
        </linearGradient>
        <linearGradient x1="29.5947266%" y1="34.6133326%" x2="142.5%" y2="-12.2686517%" id="linearGradient-21">
            <stop stop-color="#2A1873" offset="1%"></stop>
            <stop stop-color="#A14DA8" offset="99%"></stop>
        </linearGradient>
        <linearGradient x1="42.5147615%" y1="57.6288476%" x2="112.027111%" y2="-13.5166105%" id="linearGradient-22">
            <stop stop-color="#FFC14D" offset="0%"></stop>
            <stop stop-color="#E06CEA" offset="100%"></stop>
        </linearGradient>
        <linearGradient x1="29.9321186%" y1="50.7942413%" x2="115.012071%" y2="47.5963977%" id="linearGradient-23">
            <stop stop-color="#2A1873" offset="0%"></stop>
            <stop stop-color="#A14DA8" offset="100%"></stop>
        </linearGradient>
        <linearGradient x1="48.9186862%" y1="84.3887948%" x2="51.1166231%" y2="18.2869008%" id="linearGradient-24">
            <stop stop-color="#4627BB" offset="0%"></stop>
            <stop stop-color="#E06CEA" offset="100%"></stop>
        </linearGradient>
        <linearGradient x1="1.64965745%" y1="48.5717128%" x2="98.3094163%" y2="51.3573956%" id="linearGradient-25">
            <stop stop-color="#EF40B9" offset="0%"></stop>
            <stop stop-color="#F9CEC3" offset="100%"></stop>
        </linearGradient>
        <linearGradient x1="58.2201833%" y1="107.545125%" x2="38.2251776%" y2="-62.988291%" id="linearGradient-26">
            <stop stop-color="#FFC14D" offset="0%"></stop>
            <stop stop-color="#F9CEC3" offset="100%"></stop>
        </linearGradient>
        <linearGradient x1="27.9867892%" y1="-12.607109%" x2="71.309726%" y2="108.070566%" id="linearGradient-27">
            <stop stop-color="#EF40B9" offset="0%"></stop>
            <stop stop-color="#F9CEC3" offset="100%"></stop>
        </linearGradient>
        <linearGradient x1="48.5376307%" y1="133.132303%" x2="51.1889435%" y2="-18.2475304%" id="linearGradient-28">
            <stop stop-color="#4627BB" offset="0%"></stop>
            <stop stop-color="#E06CEA" offset="100%"></stop>
        </linearGradient>
        <linearGradient x1="59.9260461%" y1="-90.2570317%" x2="48.8364839%" y2="75.3431872%" id="linearGradient-29">
            <stop stop-color="#EF40B9" offset="0%"></stop>
            <stop stop-color="#F9CEC3" offset="100%"></stop>
        </linearGradient>
        <linearGradient x1="33.4343385%" y1="75.4347122%" x2="108.88397%" y2="9.41088232%" id="linearGradient-30">
            <stop stop-color="#9043F0" offset="0%"></stop>
            <stop stop-color="#E06CEA" offset="100%"></stop>
        </linearGradient>
        <linearGradient x1="55.3301438%" y1="99.8166615%" x2="44.6366391%" y2="-0.173868968%" id="linearGradient-31">
            <stop stop-color="#EF40B9" offset="0%"></stop>
            <stop stop-color="#F9CEC3" offset="100%"></stop>
        </linearGradient>
        <linearGradient x1="55.075171%" y1="123.809479%" x2="38.4469603%" y2="-105.607034%" id="linearGradient-32">
            <stop stop-color="#EF40B9" offset="0%"></stop>
            <stop stop-color="#F9CEC3" offset="100%"></stop>
        </linearGradient>
    </defs>
    <g id="UI" stroke="none" stroke-width="1" fill="none" fill-rule="evenodd">
        <g id="Home" transform="translate(-926.000000, -3614.000000)">
            <g id="How" transform="translate(0.000000, 3275.000000)">
                <g id="Image" transform="translate(907.000000, 321.000000)">
                    <g id="Process" transform="translate(19.000000, 18.000000)">
                        <g id="Layer_15" transform="translate(31.000000, 49.000000)" fill-rule="nonzero">
                            <path d="M539.625074,146.166742 C537.453088,188.009438 520.136985,234.05633 501.107206,278.449438 C493.515221,296.182772 486.521029,312.700674 479.905441,328.142622 C448.023088,402.682397 424.908382,451.538727 386.669485,485.172285 C340.519779,525.779625 220.801544,553.575131 93.1725,503.622921 C50.8088235,487.164794 25.7413235,457.157603 12.4503676,421.033408 C-0.840588235,384.909213 -2.29522059,342.169888 2.72625,300.606142 C3.58308824,293.492884 4.71889706,286.439401 6.29308824,279.465618 C13.5861765,245.592959 27.8535294,213.433858 43.4559559,186.036854 C59.6319375,157.65997 78.7973235,131.0948 100.625,106.794757 C164.828088,37.0569288 270.538015,-18.5739326 397.110956,6.17303371 C410.447545,8.80434983 423.620964,12.2039216 436.565368,16.3547566 C518.6425,42.6758052 542.514412,90.6554307 539.625074,146.166742 Z" id="Shape" fill="url(#linearGradient-1)" opacity="0.149999991"></path>
                            <path d="M221.439191,191.277154 L223.571324,208.67176 L238.815074,218.25573 C239.999735,219.001555 241.478901,219.105623 242.756334,218.53302 C244.033767,217.960417 244.94023,216.787004 245.171618,215.406442 L247.164265,203.949513 L240.708088,189.344419 L221.439191,191.277154 Z" id="Shape" fill="#E6E6E6"></path>
                            <path d="M397.051176,6.17303371 C383.680515,75.0540824 317.903235,161.588764 194.697868,186.17633 C116.167647,201.877303 72.4091176,197.254682 43.4559559,186.036854 C59.6319375,157.65997 78.7973235,131.0948 100.625,106.794757 C164.768309,36.9971536 270.478235,-18.5739326 397.051176,6.17303371 Z" id="Shape" fill="url(#linearGradient-2)" opacity="0.149999991"></path>
                            <path d="M221.439191,191.277154 L223.571324,208.67176 L238.815074,218.25573 C239.999735,219.001555 241.478901,219.105623 242.756334,218.53302 C244.033767,217.960417 244.94023,216.787004 245.171618,215.406442 L247.164265,203.949513 L240.708088,189.344419 L221.439191,191.277154 Z" id="Shape" fill="#F9CDC3"></path>
                            <g id="Group" opacity="0.27" transform="translate(407.492647, 140.468165)" fill="url(#linearGradient-3)">
                                <path d="M3.16830882,6.23655431 C4.8190716,6.23655431 6.15727916,4.89843897 6.15727916,3.24779026 C6.15727916,1.59714156 4.8190716,0.259026217 3.16830882,0.259026217 C1.51754595,0.259026217 0.179338235,1.59714146 0.179338235,3.24779026 C0.179338235,4.89843907 1.51754595,6.23655431 3.16830882,6.23655431 L3.16830882,6.23655431 Z" id="Shape"></path>
                            </g>
                            <path d="M479.905441,328.142622 C448.023088,402.682397 424.908382,451.538727 386.669485,485.172285 C340.519779,525.779625 220.801544,553.575131 93.1725,503.622921 C50.8088235,487.164794 25.7413235,457.157603 12.4503676,421.033408 C-0.840588235,384.909213 -2.29522059,342.169888 2.72625,300.606142 C3.58308824,293.492884 4.71889706,286.439401 6.29308824,279.465618 C108.774926,363.768689 375.132059,428.78427 479.905441,328.142622 Z" id="Shape" fill="url(#linearGradient-4)" opacity="0.27"></path>
                        </g>
                        <g id="Layer_9" fill-rule="nonzero">
                            <path d="M400.1218,464.824324 L366.235133,328.028041 C366.235133,328.028041 458.8454,351.807432 457.151067,446.127703 C455.456733,540.447973 406.181533,546.387838 406.181533,546.387838 L400.1218,464.824324 Z" id="Shape" fill="url(#linearGradient-5)"></path>
                            <path d="M403.909133,562.094595 C409.430667,560.101351 534.173467,531.378716 564.830933,376.224662 C590.903733,260.616554 594.730933,241.461486 594.730933,241.461486 C594.730933,241.461486 501.722,274.35 472.6592,387.287162 C443.5964,500.224324 411.503733,483.461149 403.909133,562.094595 Z" id="Shape" fill="url(#linearGradient-6)"></path>
                            <path d="M223.951,556.912162 C223.951,556.912162 236.489067,471.820608 151.892,379.991892 C67.2949333,288.163176 0,301.418243 0,301.418243 C0,301.418243 40.9231333,380.709459 92.8893333,451.449662 C144.855533,522.189865 199.8516,535.405068 208.323267,563.390203 L223.951,556.912162 Z" id="Shape" fill="url(#linearGradient-7)"></path>
                            <path d="M444.393733,404.468919 L444.214333,404.728041 C443.428548,405.845377 442.760544,407.041051 442.221,408.295946 C437.636333,418.461486 431.975267,442.699324 426.752733,468.751014 C424.480333,480.012838 422.3076,491.593581 420.314267,502.636149 C418.4804,512.602365 416.845867,522.15 415.450533,530.302365 C412.719667,546.248311 410.806067,560.021622 410.806067,560.021622 C309.146067,603.095608 209.339867,573.376351 209.339867,573.376351 C207.446726,556.841032 204.598141,540.429132 200.8084,524.222973 C200.230333,521.870946 199.652267,519.498986 199.034333,517.107095 C194.031067,497.174662 188.071,477.24223 182.689,460.12027 C174.277133,433.510473 167.240667,414.156081 167.240667,414.156081 L444.393733,404.468919 Z" id="Shape" fill="url(#linearGradient-8)"></path>
                            <path d="M444.393733,404.468919 L444.214333,404.728041 C443.368072,405.806245 442.695514,407.010071 442.221,408.295946 C437.636333,418.461486 431.975267,442.699324 426.752733,468.751014 C404.187994,480.570441 380.588003,490.298242 356.248533,497.8125 C288.036667,518.562162 236.947533,524.980405 199.034333,517.027365 C194.031067,497.094932 188.071,477.1625 182.689,460.040541 C174.277133,433.430743 167.240667,414.076351 167.240667,414.076351 L444.393733,404.468919 Z" id="Shape" fill="url(#linearGradient-9)" opacity="0.5" style="mix-blend-mode: multiply;"></path>
                            <path d="M8.89026667,418.182432 C7.47386722,417.871115 6.42200206,416.678697 6.28988452,415.234581 C6.15776698,413.790465 6.97580182,412.426991 8.3122,411.863851 C45.8466667,392.668919 131.280933,362.371622 299.398667,359.780405 C468.533,358.783784 559.0702,387.566216 594.192733,398.010811 C596.325065,398.65643 597.829586,400.561815 597.963022,402.785651 C598.096459,405.009487 596.830567,407.081089 594.790733,407.977027 C564.472133,421.1125 459.363667,466.418919 309.066333,462.113514 C119.021933,456.711824 44.2918667,425.238514 8.89026667,418.182432 Z" id="Shape" fill="url(#linearGradient-10)"></path>
                            <path d="M434.108133,406.103378 C417.085067,411.166216 385.251533,418.501351 339.1258,420.514527 C327.1658,421.03277 314.049667,421.19223 300.056467,420.873311 C271.571733,420.175676 247.233133,418.182432 227.020733,415.690878 C204.460735,413.172645 182.133254,408.887295 160.244067,402.874324 C159.240097,402.573745 158.552366,401.649983 158.552366,400.602027 C158.552366,399.554071 159.240097,398.630309 160.244067,398.32973 C184.812115,391.249176 209.929246,386.235311 235.332933,383.340541 C257.029262,380.75611 278.864844,379.517928 300.714267,379.633108 C312.913467,379.633108 324.634267,380.171284 335.697267,380.928716 C368.875359,383.075438 401.777648,388.340901 433.9686,396.655405 C436.153601,397.155243 437.714055,399.083521 437.747689,401.324623 C437.780251,403.565726 436.277421,405.53924 434.108133,406.103378 L434.108133,406.103378 Z" id="Shape" fill="#160F45"></path>
                            <path d="M269.438867,582.565203 C193.3932,577.502365 157.134467,571.084122 54.3781333,588.345608 C65.5198716,560.05387 90.1949714,539.301032 119.978733,533.172635 L107.2812,511.027703 C107.2812,511.027703 144.2974,514.0375 175.413333,534.508108 C235.771467,547.444257 269.438867,582.565203 269.438867,582.565203 Z" id="Shape" fill="url(#linearGradient-11)"></path>
                            <path d="M173.918333,297.571284 L187.193933,331.456419 C182.6292,330.160811 178.423267,329.164189 174.7356,328.506419 C170.390133,311.444257 169.7722,299.185811 173.918333,297.571284 Z" id="Shape" fill="url(#linearGradient-12)"></path>
                            <path d="M174.7356,328.446622 C175.552867,331.615878 176.4698,334.924662 177.526267,338.412838 L158.370333,330.041216 C159.586267,327.230743 165.646,326.891892 174.7356,328.446622 Z" id="Shape" fill="url(#linearGradient-13)"></path>
                            <path d="M411.7828,325.516554 C408.473867,326.353716 405.005467,327.330405 401.417467,328.446622 L390.872733,300.660811 C395.178333,298.986486 403.2912,309.152027 411.7828,325.516554 Z" id="Shape" fill="url(#linearGradient-14)"></path>
                            <path d="M444.991733,324.480068 L416.606667,335.263514 C415.031933,331.815203 413.437267,328.546284 411.862533,325.516554 C430.0218,320.912162 443.337267,320.114865 444.991733,324.480068 Z" id="Shape" fill="url(#linearGradient-15)"></path>
                            <path d="M354.813333,184.056081 C352.919667,184.534459 350.926333,185.092568 348.833333,185.730405 L342.753667,169.784459 C345.345,168.827703 350.029333,174.628041 354.813333,184.056081 Z" id="Shape" fill="url(#linearGradient-16)"></path>
                            <path d="M374.009133,183.378378 L357.643867,189.597297 C356.726933,187.604054 355.81,185.730405 354.893067,183.996284 C365.397933,181.385135 373.052333,180.946622 374.009133,183.378378 Z" id="Shape" fill="url(#linearGradient-17)"></path>
                            <path d="M533.4758,183.956419 C531.482467,183.71723 529.489133,183.537838 527.296467,183.378378 L527.436,166.296284 C530.0672,166.316216 532.319667,173.412162 533.4758,183.956419 Z" id="Shape" fill="url(#linearGradient-18)"></path>
                            <path d="M551.495614,190.314865 L533.994067,190.175338 C533.854533,188.002703 533.675133,185.92973 533.4758,183.956419 C544.18,185.252027 551.515467,187.623986 551.495614,190.314865 Z" id="Shape" fill="url(#linearGradient-19)"></path>
                            <path d="M97.2148667,208.493243 C95.4806667,210.287162 93.6667333,212.200676 91.8528,214.253716 L74.6902,200.879054 C76.7433333,198.228041 85.7133333,201.477027 97.2148667,208.493243 Z" id="Shape" fill="url(#linearGradient-20)"></path>
                            <path d="M117.606667,195.218243 L103.892533,212.798649 C101.580267,211.243919 99.3477333,209.788851 97.1949333,208.493243 C106.8626,198.626689 114.9356,193.105405 117.606667,195.218243 Z" id="Shape" fill="url(#linearGradient-21)"></path>
                            <path d="M484.778667,94.4996622 C473.715667,133.288176 431.556667,155.293581 390.6136,143.633108 C366.811016,137.051498 347.498117,119.644827 338.487933,96.6523649 C333.028848,82.4631594 332.329267,66.8841934 336.4946,52.2628378 C347.4978,13.4543919 389.6568,-8.53108108 430.56,3.12939189 C455.953035,10.079379 476.130045,29.3635914 484.220533,54.4155405 C488.315009,67.4360642 488.509029,81.3701949 484.778667,94.4996622 L484.778667,94.4996622 Z" id="Shape" fill="url(#linearGradient-22)"></path>
                            <path d="M484.220533,54.4155405 C458.538754,57.5889283 433.833224,66.2201812 411.762867,79.7297297 C384.195067,96.6324324 358.281733,98.9844595 338.487933,96.6722973 C333.028848,82.4830918 332.329267,66.9041258 336.4946,52.2827703 C347.4978,13.4543919 389.6568,-8.53108108 430.56,3.12939189 C455.953035,10.079379 476.130045,29.3635914 484.220533,54.4155405 L484.220533,54.4155405 Z" id="Shape" fill="#E6E6E6" opacity="0.400000006" style="mix-blend-mode: multiply;"></path>
                            <path d="M445.549867,55.3523649 C444.9718,56.6081081 444.333933,57.8837838 443.676133,59.1793919 C442.7592,61.0530405 441.6828,62.9665541 440.706067,64.9398649 C437.8556,70.2817568 434.586533,76.0023649 430.938733,81.9422297 C426.8524,88.5797297 422.6664,94.9581081 418.520267,100.818243 C416.287733,104.007432 414.0552,107.037162 411.9024,109.907432 C409.395376,107.937536 407.061325,105.756964 404.925733,103.389527 C399.455557,97.3221814 394.718693,90.6319972 390.812933,83.4570946 C387.43587,77.4626757 384.632748,71.1626087 382.440933,64.6408784 C381.823,62.7871622 381.304733,60.9932432 380.8662,59.2591216 C380.547267,57.9635135 380.2682,56.7077703 380.029,55.5118243 C384.015667,55.0733108 388.254822,54.7278153 392.746467,54.4753378 C400.1218,54.0168919 407.975533,53.7976351 416.0286,53.8375 C422.7262,53.8375 429.084933,54.0766892 434.9254,54.435473 C438.613067,54.6746622 442.1014,54.9537162 445.350533,55.2925676 L445.549867,55.2925676 L445.549867,55.3523649 Z" id="Shape" fill="#FFFFFF"></path>
                            <path d="M445.549867,55.3523649 C444.9718,56.6081081 444.333933,57.8837838 443.676133,59.1793919 C422.786051,57.1632114 401.748452,57.2032685 380.8662,59.2989865 C380.547267,58.0033784 380.2682,56.7476351 380.029,55.5516892 C384.015667,55.1131757 388.254822,54.7676802 392.746467,54.5152027 C400.1218,54.0567568 407.975533,53.8375 416.0286,53.8773649 C422.7262,53.8773649 429.084933,54.1165541 434.9254,54.4753378 C438.613067,54.714527 442.1014,54.9935811 445.350533,55.3324324 L445.549867,55.3324324 L445.549867,55.3523649 Z" id="Shape" fill="url(#linearGradient-23)" opacity="0.100000001"></path>
                        </g>
                        <g id="Layer_8" transform="translate(146.000000, 77.000000)">
                            <path d="M44.4712667,152.916437 L27.4681333,180.098103 L23.92,185.701954 C20.4837006,182.979179 17.6355389,179.586946 15.548,175.73069 C9.8072,166.317816 2.9302,148.987759 1.21593333,118.734943 C1.05646667,115.663793 0.936866667,112.752184 0.916933333,109.840575 C0.318933333,62.3574138 17.7606,44.6285057 17.7606,44.6285057 C17.7606,44.6285057 14.3918667,61.0013218 18.3187333,92.7498276 C22.0064,122.543966 35.0428,141.668851 41.1822667,149.227069 C43.2154667,151.68 44.4712667,152.916437 44.4712667,152.916437 Z" id="Shape" fill="#F9CDC3" fill-rule="nonzero"></path>
                            <path d="M282.873933,166.058563 C276.533195,169.221873 270.523476,173.009742 264.933933,177.365977 C255.565267,184.445575 246.116867,192.542241 226.861267,202.393851 C220.881267,205.484943 215.917867,207.798276 211.951133,209.513333 L211.951133,209.513333 C196.004467,216.393506 195.147333,213.701264 195.147333,213.701264 L193.453,206.123103 L187.014533,176.987069 L201.7054,174.673736 L203.120667,174.454368 C203.120667,174.454368 233.020667,177.186494 258.1566,160.833621 C273.425533,150.862356 268.502,139.554943 276.6946,139.096264 C279.345733,138.956667 271.810933,147.073276 276.236133,147.292644 C280.661333,147.512011 285.6048,133.632011 292.4818,132.694713 C299.3588,131.757414 302.568067,156.386437 282.873933,166.058563 Z" id="Shape" fill="#F9CDC3" fill-rule="nonzero"></path>
                            <path d="M213.7252,200.997874 C213.493969,203.89615 212.911636,206.755586 211.991,209.513333 L211.991,209.513333 C211.7518,210.231264 211.492667,210.969138 211.2136,211.687069 C211.2136,211.687069 203.658867,216.951897 174.1376,219.145575 C170.627472,219.405014 167.102995,219.405014 163.592867,219.145575 C134.0118,216.892069 111.3476,197.208793 111.3476,197.208793 L127.872333,173.058391 C127.872333,173.058391 121.712933,166.537184 163.752333,171.283506 C185.1408,173.696552 196.243667,174.47431 201.825,174.713621 C203.563996,174.827139 205.308538,174.827139 207.047533,174.713621 C212.024333,182.535742 214.364657,191.747593 213.7252,200.997874 L213.7252,200.997874 Z" id="Shape" fill="url(#linearGradient-24)" fill-rule="nonzero"></path>
                            <path d="M264.9738,177.365977 C255.605133,184.445575 246.156733,192.542241 226.901133,202.393851 C220.921133,205.484943 215.957733,207.798276 211.991,209.513333 L211.991,209.513333 C211.7518,210.231264 211.492667,210.969138 211.2136,211.687069 C211.2136,211.687069 203.658867,216.951897 174.1376,219.145575 C170.627472,219.405014 167.102995,219.405014 163.592867,219.145575 L166.244,207.299713 C166.244,207.299713 175.592733,209.293966 193.492867,206.143046 C200.340677,204.87422 207.098984,203.162213 213.7252,201.017816 C231.629085,195.052506 248.816897,187.120126 264.9738,177.365977 L264.9738,177.365977 Z" id="Shape" fill="url(#linearGradient-25)" fill-rule="nonzero" opacity="0.4" style="mix-blend-mode: multiply;"></path>
                            <path d="M188.928133,289.961494 C166.1842,279.611322 142.6828,279.013046 126.138133,280.588506 C118.523294,281.222217 110.983123,282.557376 103.613467,284.577011 C103.634069,284.384785 103.634069,284.190905 103.613467,283.998678 C105.806133,261.543391 83.6801333,238.031149 67.7334667,226.165345 L66.0192,224.889023 C62.6273292,222.495098 59.5645998,219.665627 56.9096667,216.473276 C39.3284667,194.89546 66.0590667,180.257644 66.0590667,180.257644 C67.8530667,180.397241 74.3314,173.058391 91.3544667,176.069713 C108.836,179.160805 131.101533,164.842069 148.264133,171.243621 C160.343733,175.750632 170.649267,185.382874 181.991333,194.576379 C193.3334,203.769885 182.669067,210.809598 185.120867,244.572299 C186.137467,256.258621 187.512867,273.070172 188.928133,289.961494 Z" id="Shape" fill="url(#linearGradient-26)" fill-rule="nonzero"></path>
                            <path d="M106.902467,163.525862 L109.035333,180.93569 L124.284333,190.528046 C125.469403,191.274523 126.949078,191.378682 128.226951,190.805578 C129.504824,190.232474 130.411599,189.058034 130.643067,187.676264 L132.6364,176.20931 L126.178,161.591437 L106.902467,163.525862 Z" id="Shape" fill="#F9C2C2" fill-rule="nonzero"></path>
                            <path d="M106.902467,163.525862 L109.035333,180.93569 L124.284333,190.528046 C125.469403,191.274523 126.949078,191.378682 128.226951,190.805578 C129.504824,190.232474 130.411599,189.058034 130.643067,187.676264 L132.6364,176.20931 L126.178,161.591437 L106.902467,163.525862 Z" id="Shape" fill="url(#linearGradient-27)" fill-rule="nonzero" opacity="0.4" style="mix-blend-mode: multiply;"></path>
                            <path d="M94.4242,224.350575 C93.3876667,227.401782 88.6834,227.541379 85.1153333,228.159598 C74.0523333,230.153851 58.5242667,225.168218 38.4713333,206.96069 C29.3772241,198.989498 21.1581437,190.071359 13.9533333,180.357356 C14.4208024,178.778552 14.9935079,177.232866 15.6676,175.73069 C16.7799306,173.24882 18.1142499,170.872636 19.6542667,168.631149 C25.2306158,160.537734 32.6505345,153.886803 41.3018667,149.227069 L42.0992,148.808276 C53.5172133,160.933706 67.1427183,170.768359 82.2449333,177.78477 C105.646667,188.154885 100.763,205.22569 94.4242,224.350575 Z" id="Shape" fill="url(#linearGradient-28)" fill-rule="nonzero"></path>
                            <ellipse id="Oval" fill="#5E3D1D" fill-rule="nonzero" transform="translate(80.111006, 120.594219) rotate(-82.400000) translate(-80.111006, -120.594219) " cx="80.1110064" cy="120.594219" rx="16.2131451" ry="16.0464628"></ellipse>
                            <path d="M132.078267,130.181954 C134.4902,146.016322 139.114733,170.545632 127.094933,171.722241 C103.8726,173.975747 97.4540667,162.189713 90.896,147.551897 C81.7466,127.110805 91.8926667,107.168276 103.832733,105.373448 C115.7728,103.578621 129.686267,114.327644 132.078267,130.181954 Z" id="Shape" fill="url(#linearGradient-29)" fill-rule="nonzero"></path>
                            <path d="M99.0288,134.130575 C99.0288,134.130575 117.8658,144.301264 135.586533,134.768736 C135.586533,134.768736 133.035067,102.402011 103.832733,105.373448 C74.6304,108.344885 84.0389333,149.925057 94.0255333,154.013276 C94.0255333,154.013276 99.2480667,147.053333 99.0288,134.130575 Z" id="Shape" fill="#754C24" fill-rule="nonzero"></path>
                            <path d="M89.8395333,146.175862 C91.1563008,148.832174 92.6272347,151.409161 94.2448,153.893621 L97.7530667,159.437644 C97.7530667,159.437644 91.7730667,160.03592 88.7033333,156.486149 C87.3312057,155.034878 86.6662947,153.053421 86.8851125,151.067789 C87.1039304,149.082157 88.184342,147.293213 89.8395333,146.175862 L89.8395333,146.175862 Z" id="Shape" fill="#F9CBC3" fill-rule="nonzero"></path>
                            <path d="M193.612467,344.005747 L191.36,344.005747 C179.958133,344.464425 167.719067,344.58408 154.622867,344.284943 C126.138133,343.586954 101.799533,341.592701 81.5871333,339.099885 C83.1429603,319.101033 90.8515043,300.075066 103.653333,284.636839 C111.02299,282.617203 118.56316,281.282044 126.178,280.648333 C142.722667,279.072874 165.347,269.540345 188.090933,279.890517 C188.509533,284.716609 189.8052,299.673506 190.203867,304.399885 C191.519467,320.074713 192.815133,334.792299 193.612467,344.005747 Z" id="Shape" fill="url(#linearGradient-30)" fill-rule="nonzero"></path>
                            <path d="M147.1678,203.390977 C147.869898,217.597411 139.513488,230.693825 126.337467,236.036897" id="Shape" stroke="#FFFFFF"></path>
                            <path d="M14.1925333,68.7988506 L27.0694667,54.4202874 C27.0694667,54.4202874 23.7804667,45.3663793 22.425,45.0472989 C21.0695333,44.7282184 22.5645333,53.2237356 19.7140667,54.4601724 L29.2820667,34.756954 L17.94,22.3128161 C17.94,22.3128161 5.24246667,58.5284483 4.46506667,73.7445977 L14.1925333,68.7988506 Z" id="Shape" fill="#F9CDC3" fill-rule="nonzero"></path>
                            <polygon id="Shape" fill="#5E3D1E" fill-rule="nonzero" points="16.8835333 57.5113793 50.7104 0.395977011 18.8569333 46.3435632"></polygon>
                            <path d="M191.36,344.005747 C179.958133,344.464425 167.719067,344.58408 154.622867,344.284943 C126.138133,343.586954 101.799533,341.592701 81.5871333,339.099885 C83.1429603,319.101033 90.8515043,300.075066 103.653333,284.636839 C103.673936,284.444612 103.673936,284.250733 103.653333,284.058506 C105.846,261.603218 83.72,238.090977 67.7733333,226.225172 C73.2441579,228.372789 79.179209,229.060033 84.9957333,228.219425 C95.9590667,234.88023 103.254667,238.410057 105.9058,243.435575 C114.536933,259.908103 122.849133,270.776782 126.018533,280.688218 C128.789267,289.403103 127.593267,297.360172 119.1814,307.75023 C101.2414,329.946264 144.1778,339.897586 168.8154,340.974483 C176.412254,341.233181 183.964434,342.24862 191.36,344.005747 L191.36,344.005747 Z" id="Shape" fill="url(#linearGradient-31)" fill-rule="nonzero" opacity="0.4" style="mix-blend-mode: multiply;"></path>
                            <path d="M85.1153333,228.119713 C74.0523333,230.113966 58.5242667,225.128333 38.4713333,206.920805 C29.3793709,198.962119 21.1603662,190.057433 13.9533333,180.357356 C14.4208024,178.778552 14.9935079,177.232866 15.6676,175.73069 C9.9268,166.317816 3.0498,148.987759 1.33553333,118.734943 C1.17606667,115.663793 1.05646667,112.752184 1.03653333,109.840575 C2.47173333,115.40454 3.86706667,121.666494 5.1428,128.646379 C7.54284403,142.706372 12.4587382,156.217806 19.6542667,168.531437 C22.060488,172.522821 24.7238986,176.35324 27.6276,179.998391 C38.6108667,193.958161 51.5476,203.749943 63.2684,212.903563 C70.22721,218.425385 77.5237042,223.507313 85.1153333,228.119713 L85.1153333,228.119713 Z" id="Shape" fill="url(#linearGradient-32)" fill-rule="nonzero" opacity="0.4" style="mix-blend-mode: multiply;"></path>
                        </g>
                    </g>
                </g>
            </g>
        </g>
    </g>
</svg>