<?xml version="1.0" encoding="UTF-8"?>
<svg width="104px" height="96px" viewBox="0 0 104 96" version="1.1" xmlns="http://www.w3.org/2000/svg" xmlns:xlink="http://www.w3.org/1999/xlink">
    <!-- Generator: Sketch 58 (84663) - https://sketch.com -->
    <title>Whiteboard</title>
    <desc>Created with Sketch.</desc>
    <defs>
        <linearGradient x1="28.1106854%" y1="96.5542936%" x2="76.3285801%" y2="0.915088794%" id="linearGradient-1">
            <stop stop-color="#FFC14D" offset="0%"></stop>
            <stop stop-color="#9043F0" offset="100%"></stop>
        </linearGradient>
    </defs>
    <g id="UI" stroke="none" stroke-width="1" fill="none" fill-rule="evenodd">
        <g id="Home" transform="translate(-1203.000000, -909.000000)" fill-rule="nonzero">
            <g id="Services" transform="translate(375.000000, 830.000000)">
                <g id="Group-4-Copy" transform="translate(828.000000, 79.000000)">
                    <g id="Whiteboard">
                        <path d="M95.7240062,64.3567295 C83.4516936,82.3730329 51.4951464,96.4663488 24.5064591,90.6845634 C18.7841271,89.5216501 13.539651,86.7089875 9.4364753,82.6023874 C1.72987903,74.872801 -1.04352494,63.4153494 0.343177046,53.6831907 C0.44371294,52.9780115 0.565049364,52.2796786 0.710653072,51.5950385 C1.8165479,46.3370028 4.19820856,41.7362215 7.7273651,38.7272283 C17.7116194,30.2205755 24.5376599,29.8269074 30.0948681,28.6561729 C32.7053346,28.1153072 35.0349939,27.410128 37.2779844,25.6300638 C39.3303033,24.0006204 41.3098204,21.4777217 43.3690728,17.3561885 C50.9959337,2.11610049 70.0977535,-7.60921173 88.6934271,7.74726508 C88.977701,7.98346591 89.2619749,8.22308993 89.5462488,8.46956036 C91.945471,10.540158 94.1172318,12.854448 96.0256139,15.3741555 C97.6214286,17.4843181 99.0054133,19.7428717 100.157986,22.1178602 C106.522948,35.2903352 104.935174,50.8145488 95.7240062,64.3567295 Z" id="Shape" fill="url(#linearGradient-1)" opacity="0.200000003"></path>
                        <path d="M99.4641188,80.9764834 C92.7379475,90.7679527 75.2233014,98.4273635 60.4314247,95.2850888 C57.2951466,94.6530707 54.4207703,93.1244497 52.1719143,90.8926018 C47.9481068,86.6917397 46.4280681,80.4648638 47.1880874,75.1756471 C47.2431888,74.7923975 47.3096905,74.4128688 47.3894925,74.0407818 C47.995608,71.1831537 49.3009412,68.6827291 51.2351905,67.0474067 C56.7073299,62.4242258 60.4485251,62.2102758 63.4943027,61.574007 C64.9250391,61.2800583 66.2018717,60.8968087 67.431203,59.9293825 C68.5560316,59.0438154 69.6409592,57.6726749 70.769588,55.4327111 C74.9496944,47.1500546 85.4189611,41.8645588 95.6108206,50.2104702 C95.7666246,50.3388402 95.9224286,50.4690706 96.0782325,50.6030219 C97.3931908,51.7283467 98.5834828,52.986113 99.629423,54.3555193 C100.504052,55.5023468 101.262582,56.7298216 101.894281,58.0205762 C105.38277,65.17953 104.512547,73.6166026 99.4641188,80.9764834 Z" id="Shape-Copy" fill="#9043F0"></path>
                        <g id="Group" transform="translate(21.000000, 15.000000)">
                            <path d="M59.5284369,38.7374765 L57.4794727,38.7374765 L57.4794727,5.09830508 C57.4794727,2.29001883 55.1894539,0 52.3811676,0 L8.93107345,0 C6.12278719,0 3.83276836,2.29001883 3.83276836,5.09830508 L3.83276836,38.7374765 L1.69943503,38.7374765 C0.759322034,38.7374765 0,39.4967985 0,40.4369115 C0,41.3770245 0.759322034,42.1363465 1.69943503,42.1363465 L27.1427495,42.1363465 L14.0775895,58.4677966 C13.4870056,59.2030132 13.607533,60.2757062 14.3427495,60.8542373 C15.1502825,61.4207156 16.0903955,61.3001883 16.7291902,60.5890772 L28.9747646,45.2821092 L28.9747646,59.5163842 C28.9747646,60.4564972 29.7340866,61.2158192 30.6741996,61.2158192 C31.6143126,61.2158192 32.3736347,60.4564972 32.3736347,59.5163842 L32.3736347,45.2821092 L44.5709981,60.5167608 C45.1615819,61.2519774 46.2222222,61.3725047 46.9574388,60.7819209 C47.6926554,60.1913371 47.8131827,59.1186441 47.2225989,58.3954802 L34.2177024,42.1363465 L59.5284369,42.1363465 C60.4685499,42.1363465 61.2278719,41.3770245 61.2278719,40.4369115 C61.2278719,39.4967985 60.4685499,38.7374765 59.5284369,38.7374765 Z" id="Path" fill="#FFC14D"></path>
                            <path d="M54.0685499,38.7374765 L7.23163842,38.7374765 L7.23163842,5.09830508 C7.23163842,4.15819209 7.99096045,3.39887006 8.93107345,3.39887006 L52.3691149,3.39887006 C53.3092279,3.39887006 54.0685499,4.15819209 54.0685499,5.09830508 L54.0685499,38.7374765 Z" id="Path" fill="#FFC14D"></path>
                            <path d="M49.1510358,9.12391714 L12.1612053,9.12391714 C11.2210923,9.12391714 10.4617702,9.88323917 10.4617702,10.8233522 C10.4617702,11.7634652 11.2210923,12.5227872 12.1612053,12.5227872 L49.1510358,12.5227872 C50.0911488,12.5227872 50.8504708,11.7634652 50.8504708,10.8233522 C50.8504708,9.88323917 50.0911488,9.12391714 49.1510358,9.12391714 Z" id="Path" fill="#FFFFFF"></path>
                            <path d="M49.1510358,19.3687382 L12.1612053,19.3687382 C11.2210923,19.3687382 10.4617702,20.1280603 10.4617702,21.0681733 C10.4617702,22.0082863 11.2210923,22.7676083 12.1612053,22.7676083 L49.1510358,22.7676083 C50.0911488,22.7676083 50.8504708,22.0082863 50.8504708,21.0681733 C50.8504708,20.1280603 50.0911488,19.3687382 49.1510358,19.3687382 Z" id="Path" fill="#FFFFFF"></path>
                            <path d="M35.5917137,29.6135593 L12.1612053,29.6135593 C11.2210923,29.6135593 10.4617702,30.3728814 10.4617702,31.3129944 C10.4617702,32.2531073 11.2210923,33.0124294 12.1612053,33.0124294 L35.5917137,33.0124294 C36.5318267,33.0124294 37.2911488,32.2531073 37.2911488,31.3129944 C37.2911488,30.3728814 36.5318267,29.6135593 35.5917137,29.6135593 Z" id="Path" fill="#FFFFFF"></path>
                        </g>
                    </g>
                </g>
            </g>
        </g>
    </g>
</svg>